# xmcd CD database file
#
# Track frame offsets:
#	150
#	33010
#	77745
#	116453
#	149508
#	176595
#	200795
#	212628
#	228768
#	255400
#	282755
#
# Disc length: 4241 seconds
#
# Revision: 0
# Processed by: cddbd v1.4PL0 Copyright (c) Steve Scherf et al.
# Submitted via: CDex 1.50beta10
#
DISCID=92108f0b
DTITLE=Walter Davis trio - Illumination
DYEAR=1977
DGENRE=Jazz
TTITLE0=Scorpio rising
TTITLE1=Illumination
TTITLE2=Ronnie's a dynamite lady
TTITLE3=Backgammon
TTITLE4=Abide with me
TTITLE5=Crowded elevator
TTITLE6=Theme from "La Strada"
TTITLE7=Biribinya nos states
TTITLE8=Just one of those things
TTITLE9=Pranayama
TTITLE10=I'll keep loving you
EXTD=YEAR: 1977
EXTT0=
EXTT1=
EXTT2=
EXTT3=
EXTT4=
EXTT5=
EXTT6=
EXTT7=
EXTT8=
EXTT9=
EXTT10=
PLAYORDER=
